<svg width="12" height="18" viewBox="0 0 12 18" fill="none" xmlns="http://www.w3.org/2000/svg">
<path d="M6 0C2.82358 0 0.248947 2.57463 0.248947 5.75105C0.248947 7.1208 0.730589 8.37673 1.53089 9.36401C1.78886 9.68175 2.22043 10.182 2.44539 10.5241C3.74071 12.492 5.4025 15.35 5.88678 17.6953C5.96987 18.0958 6.07001 18.1028 6.17783 17.7083C6.52324 16.4437 7.41909 13.6805 9.26914 10.7892C9.48974 10.4444 9.93702 9.96181 10.2147 9.66138C10.6169 9.22582 10.9516 8.72718 11.206 8.1835C11.5527 7.44186 11.751 6.62081 11.751 5.75172C11.751 2.57494 9.17636 0 6 0ZM6 8.85831C4.22708 8.85831 2.78989 7.42112 2.78989 5.6482C2.78989 3.8756 4.22708 2.43846 6 2.43846C7.77291 2.43846 9.2101 3.87566 9.2101 5.6482C9.2101 7.42118 7.77291 8.85831 6 8.85831Z" fill="#D64446"/>
</svg>
